<?xml version="1.0" encoding="UTF-8"?>
<svg id="Layer_2" data-name="Layer 2" xmlns="http://www.w3.org/2000/svg" viewBox="0 0 44.96 32.75">
  <defs>
    <style>
      .cls-1 {
        fill: #eb1d24;
      }
    </style>
  </defs>
  <g id="Layer_1-2" data-name="Layer 1">
    <g>
      <path class="cls-1" d="m6.73,16.34c-.01-8.67,7.07-15.75,15.73-15.74,8.68,0,15.75,7.07,15.74,15.74,0,8.65-7.05,15.7-15.71,15.72-8.66.02-15.75-7.05-15.76-15.72Zm28.51-.02c0-7.05-5.7-12.76-12.75-12.76-7.08,0-12.8,5.69-12.8,12.76,0,7.07,5.7,12.79,12.78,12.79,7.07,0,12.78-5.71,12.78-12.78Z"/>
      <path class="cls-1" d="m7.51,32.75c-.36-.22-.78-.38-1.06-.67-3.02-3.07-5.05-6.69-5.92-10.92C-1.04,13.47.86,6.71,6.14.9c.32-.35.75-.68,1.2-.84.62-.21,1.28.16,1.58.72.29.54.18,1.23-.25,1.74-.77.92-1.61,1.79-2.29,2.78-2.63,3.83-3.75,8.09-3.35,12.72.4,4.62,2.25,8.59,5.45,11.93.33.35.6.71.59,1.22,0,.85-.63,1.48-1.48,1.47-.02.04-.05.08-.07.11Z"/>
      <path class="cls-1" d="m44.96,16.61c-.11,5.77-2.19,11.03-6.41,15.4-.27.28-.65.51-1.02.6-.64.15-1.24-.2-1.52-.76-.28-.54-.17-1.25.3-1.73,1.53-1.57,2.78-3.32,3.75-5.29,3.49-7.1,2.19-15.92-3.21-21.72-.16-.17-.32-.34-.48-.51-.64-.68-.67-1.59-.07-2.17.6-.59,1.51-.55,2.17.11,1.28,1.29,2.39,2.72,3.32,4.29,2.1,3.55,3.13,7.39,3.17,11.78Z"/>
      <path class="cls-1" d="m20.99,18.53c0-1.42,0-2.84,0-4.26,0-.99.63-1.69,1.5-1.67.86.02,1.46.7,1.46,1.67,0,2.9,0,5.8,0,8.71,0,.7-.37,1.26-.95,1.47-.61.22-1.18.11-1.57-.38-.24-.31-.4-.75-.42-1.14-.05-1.47-.02-2.93-.02-4.4Z"/>
      <path class="cls-1" d="m22.48,8.85c.8,0,1.49.72,1.47,1.51-.02.79-.71,1.45-1.49,1.44-.8,0-1.49-.72-1.47-1.51.02-.79.7-1.45,1.49-1.44Z"/>
    </g>
  </g>
</svg>